<svg xmlns="http://www.w3.org/2000/svg" width="51" height="50" viewBox="0 0 51 50" fill="none">
  <path d="M49.6586 43.75H1.80104C1.10521 43.75 0.541626 44.4492 0.541626 45.3125V48.4375C0.541626 49.3008 1.10521 50 1.80104 50H49.6586C50.3545 50 50.918 49.3008 50.918 48.4375V45.3125C50.918 44.4492 50.3545 43.75 49.6586 43.75ZM4.06876 20.084L11.0538 27.8965C11.6269 28.5386 12.3136 29.0046 13.0586 29.2569L35.6965 36.9082C37.7808 37.6123 39.9911 37.7598 42.0723 37.041C44.4077 36.2334 45.4916 34.9697 45.7915 33.5537C46.0929 32.1377 45.6553 30.3594 43.9519 28.1866C42.4343 26.251 40.461 24.9844 38.3767 24.2803L30.7014 21.6866L22.8017 2.95124C22.6828 2.38386 22.3334 1.9405 21.8839 1.78816L16.7605 0.0567168C15.9293 -0.224533 15.1154 0.576247 15.1303 1.66218L18.9023 17.6983L10.8578 14.9795L8.68608 8.35065C8.53416 7.87311 8.21301 7.51374 7.81866 7.38092L4.69138 6.32331C3.87749 6.04792 3.0754 6.81159 3.06045 7.87409L3.07855 17.8135C3.09351 18.6836 3.55319 19.5069 4.06876 20.084Z" fill="#595959"/>
</svg>