<svg xmlns="http://www.w3.org/2000/svg" width="52" height="52" viewBox="0 0 52 52" fill="none">
<path d="M49.8918 44.2502H1.80723C1.10811 44.2502 0.541851 45.0118 0.541851 45.9521V49.3559C0.541851 50.2962 1.10811 51.0578 1.80723 51.0578H49.8918C50.5909 51.0578 51.1572 50.2962 51.1572 49.3559V45.9521C51.1572 45.0118 50.5909 44.2502 49.8918 44.2502ZM6.91227 32.8974C7.40893 33.625 8.10647 34.0377 8.83644 34.0367L19.1604 34.0175C19.9751 34.016 20.7782 33.7566 21.5045 33.2602L44.5155 17.5548C46.6303 16.1114 48.526 14.051 49.8159 11.3524C51.264 8.32306 51.4213 6.1308 50.8496 4.58207C50.2793 3.03228 48.893 1.89413 46.2428 1.66225C43.882 1.45589 41.534 2.29195 39.4192 3.73431L31.6284 9.05169L14.3322 0.323064C14.1242 0.13464 13.8826 0.0243475 13.6323 0.00359011C13.3821 -0.0171673 13.1322 0.0523639 12.9086 0.204995L7.70867 3.75452C6.86482 4.32998 6.66077 5.84467 7.29979 6.78922L19.6547 17.224L11.4922 22.7956L5.77026 18.9163C5.57312 18.7827 5.35538 18.7132 5.13461 18.7136C4.91384 18.7139 4.69622 18.7841 4.49934 18.9185L1.3256 21.0852C0.499935 21.6489 0.282447 23.119 0.885086 24.072L6.91227 32.8974Z" fill="#595959"/>
</svg>