<?xml version="1.0" standalone="no"?>
<!DOCTYPE svg PUBLIC "-//W3C//DTD SVG 20010904//EN"
 "http://www.w3.org/TR/2001/REC-SVG-20010904/DTD/svg10.dtd">
<svg version="1.0" xmlns="http://www.w3.org/2000/svg"
 width="543.000000pt" height="460.000000pt" viewBox="0 0 543.000000 460.000000"
 preserveAspectRatio="xMidYMid meet">

<g transform="translate(0.000000,460.000000) scale(0.100000,-0.100000)"
fill="#000000" stroke="none">
<path d="M2460 3900 c-325 -59 -610 -210 -841 -447 -87 -89 -177 -200 -204
-254 l-16 -29 79 0 c77 0 78 0 97 33 l19 32 6 -36 c4 -19 22 -62 42 -95 29
-49 34 -66 30 -102 -3 -29 1 -50 13 -68 19 -29 79 -58 107 -51 14 4 22 -3 32
-28 19 -45 57 -69 98 -61 43 9 145 75 157 104 6 13 11 33 11 46 0 19 20 35
115 90 63 36 117 66 120 66 3 0 5 -87 5 -194 0 -190 1 -195 22 -210 12 -9 28
-16 34 -16 6 0 46 22 87 49 89 58 79 34 138 341 23 118 46 220 51 227 6 7 44
32 86 57 114 65 152 112 152 186 0 74 -36 117 -115 139 -66 18 -108 3 -305
-109 l-190 -108 -102 14 c-136 18 -193 18 -212 -1 -44 -44 -23 -103 43 -122
24 -7 46 -14 48 -17 2 -2 -23 -20 -56 -40 l-60 -37 -109 12 c-60 6 -132 10
-160 8 l-51 -4 62 63 c222 226 475 364 782 424 143 28 386 30 520 5 193 -38
390 -119 564 -234 83 -55 282 -242 347 -326 l29 -38 78 3 77 3 -36 55 c-220
329 -579 570 -986 661 -138 31 -462 36 -608 9z m335 -330 c22 -24 14 -63 -18
-85 -12 -9 -74 -47 -137 -84 -63 -37 -233 -136 -377 -221 l-263 -154 0 -37 c0
-40 -15 -61 -61 -84 l-29 -16 0 66 c0 50 -4 67 -16 72 -20 8 -66 -17 -72 -39
-5 -19 -19 -22 -46 -12 -20 8 -21 32 -1 54 13 14 10 23 -27 83 -22 37 -38 70
-35 74 4 3 63 0 131 -7 l125 -13 283 165 c462 270 439 258 484 258 28 0 46 -6
59 -20z m-258 -372 c-54 -312 -73 -376 -109 -378 -5 0 -8 76 -8 170 l0 169 52
36 c29 19 57 35 62 35 5 0 6 -15 3 -32z"/>
<path d="M2700 3525 c-9 -11 -10 -19 -3 -26 14 -14 53 6 53 26 0 20 -34 19
-50 0z"/>
<path d="M2542 3438 c-16 -16 -15 -38 2 -38 18 0 39 27 31 40 -8 13 -18 13
-33 -2z"/>
<path d="M2427 3373 c-14 -13 -6 -33 12 -33 19 0 35 23 24 34 -8 8 -28 8 -36
-1z"/>
<path d="M2296 3294 c-9 -23 -8 -24 13 -24 21 0 45 23 34 33 -12 13 -41 7 -47
-9z"/>
<path d="M2186 3234 c-17 -17 -20 -27 -10 -37 10 -10 44 12 44 28 0 22 -17 27
-34 9z"/>
<path d="M2065 3160 c-9 -10 -14 -23 -11 -29 11 -17 55 7 56 30 0 17 -30 16
-45 -1z"/>
<path d="M3092 3444 c-173 -46 -304 -169 -364 -342 -19 -55 -23 -88 -23 -182
0 -132 18 -199 84 -312 31 -53 36 -68 24 -72 -8 -3 -352 -6 -765 -6 l-750 0 7
43 c21 124 88 321 141 414 13 23 24 44 24 47 0 3 -33 6 -74 6 l-73 0 -33 -67
c-44 -94 -86 -221 -106 -328 -9 -49 -18 -96 -20 -102 -3 -10 -45 -13 -169 -13
-152 0 -167 -2 -185 -20 -27 -27 -26 -37 15 -106 58 -96 51 -94 251 -94 167 0
173 -1 188 -22 33 -47 28 -48 -167 -48 -183 0 -207 -4 -207 -36 0 -7 7 -20 16
-28 13 -14 48 -16 229 -16 l214 0 20 -29 c34 -47 29 -51 -63 -51 -105 0 -112
-7 -90 -81 22 -73 52 -125 81 -138 14 -6 83 -11 163 -11 l139 0 21 -28 22 -27
-129 -2 c-70 -2 -138 -5 -150 -8 -32 -7 -30 -43 5 -91 50 -69 50 -69 221 -74
l156 -5 0 -25 0 -25 -123 -3 c-140 -3 -151 -10 -108 -67 49 -63 58 -65 335
-65 238 0 253 -1 296 -22 25 -12 45 -26 45 -30 0 -4 -119 -8 -265 -8 -287 0
-292 -1 -238 -52 36 -33 197 -143 291 -198 l73 -43 42 30 c23 17 71 45 107 63
164 83 294 104 578 97 280 -7 402 -38 563 -142 l72 -47 41 19 c54 24 292 182
334 221 19 17 31 36 27 42 -4 6 -111 10 -306 10 -171 0 -299 4 -299 9 0 5 16
18 36 30 34 20 48 21 330 21 327 0 331 1 380 65 44 59 34 64 -128 67 l-143 3
0 25 0 25 180 6 c99 3 181 6 182 7 2 1 21 25 43 53 32 41 51 90 38 101 -2 1
-122 5 -268 8 l-265 5 0 25 0 25 288 5 289 5 28 32 c30 34 77 164 65 183 -4 6
-108 10 -304 10 -218 0 -300 3 -309 12 -18 18 -14 46 7 58 13 6 174 10 454 10
469 0 463 -1 455 52 l-3 23 -441 3 c-464 2 -474 3 -458 46 5 14 32 16 218 17
356 1 687 9 698 15 23 14 88 129 88 155 0 54 -16 59 -186 59 -175 0 -152 -14
-175 105 -20 104 -59 226 -101 317 l-41 88 -73 0 c-41 0 -74 -2 -74 -5 0 -4 7
-20 17 -38 15 -30 15 -31 -2 -17 -13 11 -43 14 -128 12 -131 -3 -175 8 -183
46 -27 125 -78 219 -160 291 -126 111 -316 157 -472 115z m253 -121 c96 -33
185 -110 227 -198 l22 -45 -26 -27 c-14 -16 -36 -50 -48 -76 -25 -54 -48 -70
-85 -61 -33 8 -79 -38 -89 -89 -11 -60 16 -137 64 -180 l39 -36 -26 -21 c-14
-11 -28 -20 -32 -20 -3 0 -14 -7 -25 -15 -18 -14 -18 -16 12 -62 83 -130 122
-257 122 -403 0 -267 -141 -492 -385 -614 -114 -57 -202 -77 -357 -83 -228 -9
-382 26 -590 134 -119 62 -160 93 -88 68 110 -39 325 -60 460 -45 195 21 332
81 446 195 77 76 106 123 129 212 19 74 19 96 -3 123 -26 32 -46 17 -87 -68
-51 -107 -103 -173 -181 -228 -254 -182 -711 -156 -1018 56 -161 112 -382 363
-467 532 -21 42 -39 79 -39 82 0 2 29 -11 64 -30 161 -86 324 -124 529 -124
73 0 211 -3 307 -7 199 -7 198 -10 -18 -59 -95 -22 -150 -28 -292 -32 -107 -3
-204 0 -249 7 -60 9 -76 9 -83 -1 -13 -21 36 -55 125 -85 78 -27 90 -28 267
-27 152 0 203 4 287 22 162 35 334 88 450 138 60 25 133 57 163 70 37 16 75
24 114 24 l59 0 -6 33 c-3 19 -40 98 -82 176 -93 172 -125 255 -132 341 -14
162 79 331 222 401 98 48 203 56 300 22z m305 -363 c22 -41 87 -62 207 -68 62
-3 113 -8 113 -11 -1 -12 -56 -78 -91 -109 -20 -17 -65 -46 -100 -64 -57 -29
-73 -33 -149 -33 -72 0 -91 4 -123 23 -41 26 -70 72 -65 105 2 16 13 23 42 29
48 10 72 30 98 83 36 70 50 80 68 45z m464 -128 c28 -72 76 -252 76 -283 0
-18 -12 -19 -252 -18 -139 1 -278 4 -308 8 l-55 7 58 8 c205 28 399 164 438
308 5 21 11 38 14 38 2 0 15 -30 29 -68z"/>
<path d="M3095 3065 c-16 -15 -25 -36 -25 -55 0 -19 9 -40 25 -55 15 -16 36
-25 55 -25 19 0 40 9 55 25 16 15 25 36 25 55 0 19 -9 40 -25 55 -15 16 -36
25 -55 25 -19 0 -40 -9 -55 -25z"/>
<path d="M2440 2038 c-14 -6 -72 -14 -130 -17 l-105 -6 -3 -28 c-3 -23 2 -30
32 -42 70 -29 209 -12 258 32 22 20 23 59 2 67 -20 8 -23 7 -54 -6z"/>
<path d="M3600 2895 c0 -17 30 -35 59 -35 29 0 26 13 -8 33 -36 21 -51 22 -51
2z"/>
<path d="M2592 1199 c-93 -14 -221 -64 -298 -117 -37 -26 -69 -52 -71 -59 -5
-13 33 -25 177 -55 123 -25 427 -35 555 -19 110 15 266 50 280 63 13 13 -52
68 -125 107 -148 77 -333 106 -518 80z"/>
<path d="M578 730 c-17 -10 -18 -36 -18 -309 0 -250 2 -301 15 -311 10 -8 56
-11 162 -8 147 3 148 3 212 37 114 63 167 162 159 300 -8 129 -84 237 -196
276 -58 21 -308 32 -334 15z m297 -170 c88 -54 90 -218 5 -282 -30 -22 -88
-33 -124 -24 l-26 6 0 154 c0 84 3 156 7 159 15 15 106 7 138 -13z"/>
<path d="M1222 729 l-23 -9 3 -232 c3 -216 5 -236 25 -273 43 -81 120 -124
218 -125 85 0 131 16 181 62 70 65 75 89 72 348 l-3 225 -75 0 -75 0 -5 -218
-5 -219 -28 -24 c-36 -31 -81 -31 -112 0 -31 31 -37 88 -33 294 2 136 1 164
-12 172 -19 12 -98 12 -128 -1z"/>
<path d="M1986 715 c-70 -29 -128 -81 -164 -150 -24 -44 -27 -61 -27 -145 0
-84 3 -101 27 -146 30 -56 88 -113 146 -143 50 -26 151 -42 211 -34 77 10 81
15 81 92 0 76 -10 88 -56 71 -72 -28 -179 6 -221 69 -17 25 -23 48 -23 91 0
71 27 116 90 148 38 20 57 23 125 20 l80 -3 3 65 c4 84 -4 90 -122 90 -73 0
-103 -5 -150 -25z"/>
<path d="M2377 728 c-16 -12 -17 -40 -15 -318 l3 -305 66 -3 c46 -2 69 1 77
11 7 7 13 62 14 128 l3 114 83 -105 c131 -165 111 -150 196 -150 56 0 75 4 80
15 5 15 -53 93 -178 235 -36 41 -66 82 -66 90 1 8 50 69 110 134 61 65 110
125 110 132 0 7 -9 18 -19 24 -21 11 -100 14 -125 4 -8 -3 -52 -50 -97 -105
-45 -54 -85 -99 -90 -99 -5 0 -9 43 -9 95 0 83 -2 96 -19 105 -27 14 -104 13
-124 -2z"/>
<path d="M2936 727 c-14 -10 -17 -25 -14 -72 l3 -60 50 -3 c28 -1 60 -5 73 -7
l22 -5 0 -228 c0 -164 3 -231 12 -240 12 -12 114 -17 142 -6 14 5 16 35 16
229 0 123 3 230 6 239 5 12 21 16 68 16 35 0 67 5 74 12 7 7 12 36 12 65 0 41
-4 54 -19 63 -30 16 -423 13 -445 -3z"/>
<path d="M3487 728 c-16 -12 -17 -36 -15 -318 l3 -305 75 0 75 0 3 93 c2 53 7
92 13 92 30 0 74 -39 124 -110 l56 -80 80 0 c100 0 101 7 19 116 -33 43 -60
84 -60 90 0 5 14 23 31 40 62 58 83 140 57 228 -16 52 -90 127 -143 144 -61
20 -295 27 -318 10z m279 -169 c33 -31 33 -87 -1 -119 -29 -27 -110 -33 -126
-9 -13 21 -11 133 4 148 19 19 94 8 123 -20z"/>
<path d="M4100 733 c-8 -3 -18 -11 -22 -17 -4 -6 -8 -142 -8 -302 0 -239 3
-294 14 -303 9 -7 41 -11 83 -9 l68 3 3 305 c2 278 1 306 -15 318 -17 12 -95
15 -123 5z"/>
<path d="M4367 726 c-15 -16 -17 -48 -17 -310 0 -240 3 -296 14 -305 9 -7 41
-11 83 -9 l68 3 3 83 3 82 58 0 c90 0 159 25 207 74 68 71 82 173 35 264 -48
93 -118 123 -301 130 -119 4 -138 3 -153 -12z m285 -176 c25 -26 29 -36 24
-62 -3 -17 -11 -37 -17 -44 -18 -22 -83 -36 -113 -24 -25 9 -26 13 -26 78 0
38 3 72 7 75 3 4 26 7 50 7 36 0 50 -6 75 -30z"/>
</g>
</svg>
